<?xml version="1.0" standalone="no"?><!DOCTYPE svg PUBLIC "-//W3C//DTD SVG 1.1//EN" "http://www.w3.org/Graphics/SVG/1.1/DTD/svg11.dtd"><svg t="1584073735356" class="icon" viewBox="0 0 1024 1024" version="1.1" xmlns="http://www.w3.org/2000/svg" p-id="4121" xmlns:xlink="http://www.w3.org/1999/xlink" width="16" height="16"><defs><style type="text/css"></style></defs><path d="M222.208 756.224c17.92 0 30.208 11.776 30.208 30.208 0 17.92-11.776 30.208-30.208 30.208h-46.08c-48.128 0-87.04-41.984-87.04-90.112V159.744c0-48.128 38.912-90.112 87.04-90.112H742.4c48.128 0 87.04 41.984 87.04 90.112v65.024c0 17.92-11.776 30.208-30.208 30.208-17.92 0-30.208-11.776-30.208-30.208V159.744c0-17.92-11.776-30.208-26.624-30.208H175.616c-14.848 0-26.624 11.776-26.624 30.208v566.272c0 17.92 11.776 30.208 26.624 30.208h46.592z" fill="#1afa29" p-id="4122"></path><path d="M595.456 523.776l3.072 4.096 4.608 1.024c4.096 1.024 7.68 1.024 11.264 1.024 8.192 0 15.36-2.048 20.48-6.656 7.68-6.144 11.776-16.384 11.776-29.184v-4.096l-2.56-3.584c-40.448-55.296-72.192-105.472-94.208-149.504l-2.048-3.584-4.096-2.048c-10.752-5.12-20.48-6.144-28.672-2.048-8.704 4.608-14.848 13.824-17.408 27.648l-0.512 3.584 1.536 3.584c18.944 46.08 51.2 99.84 96.768 159.744z" fill="#1afa29" p-id="4123"></path><path d="M920.576 873.984v-256.512c2.048-22.016-3.072-39.936-14.336-53.76-13.312-15.872-34.816-24.576-64.512-27.136h-37.376c5.12-0.512 9.728-2.048 12.288-3.072l3.584-1.024 2.56-3.072c26.624-34.304 57.344-89.6 91.136-164.864l1.536-3.584-0.512-3.584c-2.56-15.872-9.216-25.6-18.944-29.184-15.36-5.632-30.208 6.144-35.328 10.24l-2.56 2.048-1.024 3.072c-25.6 61.952-53.248 112.128-81.92 147.968l-2.048 2.56-0.512 3.072c-2.56 15.872 0 27.136 8.192 33.792 3.584 3.072 8.192 5.12 12.8 5.632h-56.832V288.768l-2.048-3.072c-8.192-13.312-17.408-19.968-27.648-19.968s-19.968 6.656-27.648 19.968l-2.048 3.072v248.32H504.832l-3.584 3.584c-11.776 11.776-16.384 22.016-14.848 32.768 1.024 6.144 5.12 14.848 17.92 21.504l2.56 1.536h321.536c14.848 1.536 25.088 5.632 29.696 11.776 3.584 4.096 4.608 10.24 3.072 18.432v78.848H501.248l-3.072 2.048c-13.312 8.192-20.48 17.408-20.48 27.648s6.656 19.968 20.48 27.648l3.072 2.048h360.448V866.304c1.024 8.192 0.512 14.848-2.048 16.896-2.56 2.56-8.704 3.072-16.896 2.048H501.248l-3.072 2.048c-13.312 8.192-20.48 17.408-20.48 27.648s6.656 19.968 20.48 27.648l3.072 2.048h350.208c3.584 0.512 7.168 0.512 10.24 0.512 18.944 0 33.792-5.12 44.032-15.36 11.776-13.312 16.896-31.744 14.848-55.808z" fill="#1afa29" p-id="4124"></path><path d="M500.736 637.44l-0.512-2.048c-14.336-43.52-41.472-94.208-79.36-151.04h77.312l3.584-2.56c10.752-8.192 16.384-17.408 16.384-27.136s-5.632-18.944-16.384-27.136l-4.096-2.56H416.768V294.4l-2.048-3.072c-8.192-13.312-17.408-19.968-27.648-19.968s-19.968 6.656-27.648 19.968l-2.048 3.072V424.96h-81.92l-3.584 3.584c-11.776 11.776-16.384 22.016-14.848 32.768 1.024 6.144 5.12 14.848 17.92 21.504l2.56 1.536h66.048c-18.432 92.672-47.104 172.544-84.992 238.592l-1.536 3.072v3.584c0 16.384 4.608 27.648 13.312 33.792 8.192 5.632 18.944 6.144 32.256 0.512l3.584-1.536 2.048-3.072c15.872-23.552 32.256-57.344 49.152-101.376v288.256l2.048 3.072c8.192 13.312 17.408 19.968 27.648 19.968s19.968-6.656 27.648-19.968l2.048-3.072V593.92c11.776 23.552 22.016 47.616 31.232 72.192l2.048 5.632 5.632 2.048c6.144 2.048 24.064 8.192 36.352-2.56 8.192-6.656 11.264-17.92 8.704-33.792z" fill="#1afa29" p-id="4125"></path></svg>