<?xml version="1.0" standalone="no"?><!DOCTYPE svg PUBLIC "-//W3C//DTD SVG 1.1//EN" "http://www.w3.org/Graphics/SVG/1.1/DTD/svg11.dtd"><svg t="1583642456260" class="icon" viewBox="0 0 1308 1024" version="1.1" xmlns="http://www.w3.org/2000/svg" p-id="2250" xmlns:xlink="http://www.w3.org/1999/xlink" width="20.4375" height="16"><defs><style type="text/css"></style></defs><path d="M761.088 618.808889a278.528 278.528 0 0 1 254.691556-165.603556c153.770667 0 278.442667 124.586667 278.442666 278.300445 0 153.685333-124.672 278.272-278.471111 278.272-153.770667 0-278.442667-124.586667-278.442667-278.272 0-17.749333 1.649778-35.128889 4.835556-51.939556h-104.192v124.245334h-63.488v-124.245334h-165.205333v-60.757333h165.205333v-56.661333H435.2v-283.306667h85.333333a575.800889 575.800889 0 0 0-53.248-88.746667l59.392-19.114666c19.114667 27.306667 36.181333 56.661333 51.2 87.381333l-45.738666 20.48h101.034666c19.114667-35.498667 35.498667-73.045333 50.517334-112.64l62.122666 21.162667c-15.018667 34.133333-30.72 64.170667-48.469333 91.477333h82.602667v283.306667h-141.994667v56.661333h123.136zM680.675556 924.444444a42.666667 42.666667 0 0 1 0 85.333334H152.860444A138.609778 138.609778 0 0 1 14.222222 871.196444V151.950222A138.609778 138.609778 0 0 1 152.860444 13.397333h719.786667a138.609778 138.609778 0 0 1 138.638222 138.552889v191.800889a42.666667 42.666667 0 0 1-85.333333 0V151.950222a53.276444 53.276444 0 0 0-53.304889-53.219555H152.860444A53.276444 53.276444 0 0 0 99.555556 151.950222v719.246222c0 29.411556 23.864889 53.248 53.304888 53.248h527.843556zM261.12 402.403556l-10.24 97.621333h139.946667c0 116.736-4.096 194.56-10.922667 232.789333-8.192 39.594667-43.690667 60.757333-105.130667 64.170667-17.066667 0-34.816-1.365333-52.565333-2.730667l-16.384-60.074666c17.066667 2.048 34.816 3.413333 53.930667 3.413333 35.498667 0 55.978667-11.605333 61.44-34.133333 5.461333-23.210667 8.192-72.362667 8.192-147.456H185.344l19.114667-209.578667h118.101333V252.899556H192.170667V196.920889h193.877333v205.482667H261.12z m461.482667 105.813333v-59.392h-84.650667v59.392h84.650667z m-148.138667 0v-59.392h-81.92v59.392h81.92z m-81.92-113.322667h81.92v-61.44h-81.92v61.44z m145.408-61.44v61.44h84.650667v-61.44h-84.650667zM1015.751111 924.444444c106.666667 0 193.109333-86.385778 193.109333-192.938666a193.024 193.024 0 0 0-193.137777-192.967111 193.024 193.024 0 0 0-193.109334 192.967111 193.024 193.024 0 0 0 193.137778 192.938666z m92.472889-301.027555a42.666667 42.666667 0 1 1 59.050667 61.610667l-148.423111 142.222222a42.666667 42.666667 0 0 1-58.026667 0.938666l-79.160889-71.111111a42.666667 42.666667 0 0 1 57.059556-63.488l49.664 44.657778 119.836444-114.830222z" p-id="2251" fill="#1296db"></path></svg>