<?xml version="1.0" standalone="no"?><!DOCTYPE svg PUBLIC "-//W3C//DTD SVG 1.1//EN" "http://www.w3.org/Graphics/SVG/1.1/DTD/svg11.dtd"><svg t="1583303352487" class="icon" viewBox="0 0 1024 1024" version="1.1" xmlns="http://www.w3.org/2000/svg" p-id="3674" xmlns:xlink="http://www.w3.org/1999/xlink" width="16" height="16"><defs><style type="text/css"></style></defs><path d="M0 0m256 0l512 0q256 0 256 256l0 512q0 256-256 256l-512 0q-256 0-256-256l0-512q0-256 256-256Z" fill="#2E90F1" p-id="3675"></path><path d="M331.456 832a139.392 139.392 0 0 1-98.688-40.96 138.88 138.88 0 0 1-40.64-98.688V580.928a46.4 46.4 0 0 1 22.656-41.728 46.656 46.656 0 0 1 47.424 0 46.848 46.848 0 0 1 22.784 41.728v111.744a46.464 46.464 0 0 0 46.464 46.528h361.344a46.464 46.464 0 0 0 46.336-46.528V581.184a46.72 46.72 0 0 1 22.784-41.664 46.72 46.72 0 0 1 47.424 0 46.72 46.72 0 0 1 22.784 41.664v111.488A139.392 139.392 0 0 1 692.8 832z m147.776-186.432l-139.328-139.52a46.4 46.4 0 0 1 0-65.536 46.4 46.4 0 0 1 65.728 0l60.032 60.032V304.256a46.528 46.528 0 0 1 22.784-41.728 46.144 46.144 0 0 1 47.424 0 46.528 46.528 0 0 1 22.784 41.728v196.096l49.28-48.832a46.272 46.272 0 0 1 46.336-15.36 46.272 46.272 0 0 1 34.496 34.496 46.4 46.4 0 0 1-15.552 46.336l-128.384 128.576a47.104 47.104 0 0 1-32.96 13.568 46.528 46.528 0 0 1-32.64-13.568z" fill="#FFFFFF" p-id="3676"></path></svg>