<?xml version="1.0" standalone="no"?><!DOCTYPE svg PUBLIC "-//W3C//DTD SVG 1.1//EN" "http://www.w3.org/Graphics/SVG/1.1/DTD/svg11.dtd"><svg t="1583824481314" class="icon" viewBox="0 0 1026 1024" version="1.1" xmlns="http://www.w3.org/2000/svg" p-id="2645" xmlns:xlink="http://www.w3.org/1999/xlink" width="16.03125" height="16"><defs><style type="text/css"></style></defs><path d="M513.791104 512.255872m-511.744127 0a511.744128 511.744128 0 1 0 1023.488255 0 511.744128 511.744128 0 1 0-1023.488255 0Z" fill="#F1F0FA" p-id="2646"></path><path d="M689.31934 665.77911c30.704648-54.244878 17.911044-100.301849-2.046976-147.894053-22.516742-53.733133-27.122439-100.813593-20.981509-139.706146-2.558721 2.046977-5.117441 4.605697-7.676162 7.676161-10.746627 11.770115-19.958021 27.634183-26.610695 48.615693-7.676162 25.075462-9.211394 45.033483-8.69965 75.738131 0.511744 12.793603 0.511744 15.352324-0.511744 19.958021-1.535232 10.746627-10.234883 18.422789-22.004998 13.817091-20.469765-7.676162-36.845577-46.568716-46.568715-134.588706-6.14093-54.244878-3.582209-100.301849 4.093953-137.147426-14.84058 9.723138-29.169415 23.028486-42.986507 40.93953-12.793603 15.864068-24.051974 34.798601-33.775113 56.291854-20.981509 46.568716-25.587206 66.014993-30.704647 103.372314-2.046977 15.352324-4.605697 22.516742-13.817092 30.704648-20.469765 18.934533-44.521739-17.3993-50.150924-62.432784-1.535232-11.258371-2.046977-28.145927-2.046977-48.103948 0-8.187906 0-16.887556 0.511744-25.587206-1.023488 1.535232-2.046977 2.558721-3.070464 4.093953-2.558721 3.582209-5.117441 6.652674-7.676162 10.234882-11.770115 16.887556-20.981509 33.775112-30.192904 54.244878-22.516742 52.709645-29.169415 100.301849-18.422789 152.49975 12.793603 63.968016 39.916042 102.86057 79.832084 123.330335 29.169415 15.352324 59.362319 19.446277 106.442779 19.446277 7.676162 0 23.028486-1.023488 38.892554-3.582209 23.54023-3.582209 48.103948 2.046977 65.503248-6.652674 1.023488 0 56.803598-28.145927 72.667666-55.268366z" fill="#FF8E1D" p-id="2647"></path><path d="M710.812594 508.161919c-23.028486-55.268366-25.587206-101.325337-16.887557-137.65917 1.023488-3.582209 2.046977-7.164418 3.070465-9.723139 0.511744-1.535232 1.535232-4.093953 1.535233-4.605697l7.676162-25.587206-24.563719 10.746626c-0.511744 0-1.023488 0.511744-3.070464 1.023489-1.535232 0.511744-2.558721 1.023488-4.093953 1.535232-3.582209 1.535232-6.652674 3.070465-9.723139 5.117441-8.69965 5.117441-16.887556 11.258371-24.051974 19.446277-13.305347 14.328836-24.563718 33.775112-32.23988 58.338831-7.676162 24.563718-9.723138 45.033483-9.723138 71.644178-7.164418-19.446277-13.817091-49.63918-18.422789-92.625688-5.629185-52.197901-3.582209-95.696152 4.093953-129.983008 1.535232-7.164418 3.070465-13.305347 5.117441-18.422789 1.023488-3.070465 1.535232-4.605697 2.046977-5.629185l10.746627-25.075462-26.098951 8.187906c-5.629185 1.535232-14.84058 5.629185-26.09895 12.793603-18.422789 11.258371-36.845577 27.634183-53.733134 49.127436-13.817091 17.3993-26.098951 37.869065-36.845577 61.409296-12.281859 27.634183-20.469765 51.174413-25.587207 71.644177-2.046977 8.187906-3.582209 15.352324-4.605697 23.028486-0.511744 3.070465-1.023488 5.629185-1.023488 8.69965 0 1.023488-0.511744 6.14093-1.023488 7.164418-0.511744 3.582209-1.023488 6.14093-1.535233 8.187906-5.629185-8.69965-10.234883-22.004998-12.281859-39.404298-1.023488-10.234883-2.046977-25.587206-1.535232-45.033483 0-12.793603 0.511744-26.610695 1.023488-40.427786 0-5.629185 0.511744-10.234883 0.511744-14.84058 0-2.558721 0-4.605697 0.511745-5.629185l2.046976-35.310345-24.051974 26.098951-2.558721 2.55872c-2.046977 2.046977-4.093953 4.605697-6.140929 7.164418-6.652674 7.676162-12.793603 15.352324-18.934533 23.54023-2.558721 3.582209-5.629185 7.164418-8.187906 11.258371-13.305347 18.422789-23.028486 36.845577-32.751624 59.362319-24.563718 57.315342-31.728136 109.513243-19.958021 167.340329 14.328836 71.132434 46.056972 116.677661 92.625687 140.729636 33.775112 17.3993 67.038481 22.516742 118.212894 22.516741 9.211394 0 26.098951-1.023488 42.986506-4.093953 26.098951-4.093953 50.150925-10.746627 69.597202-20.469765 6.14093-3.070465 8.69965-10.746627 5.629185-16.887556-3.070465-6.14093-10.746627-8.69965-16.887556-5.629186-17.3993 8.69965-38.892554 14.328836-62.432784 18.422789-15.864068 2.558721-31.216392 3.582209-38.892553 3.582209-47.592204 0-77.273363-4.093953-106.442779-19.446277-39.404298-20.469765-67.038481-59.362319-79.832084-123.330335-10.234883-52.197901-4.093953-99.790105 18.422789-152.49975 8.69965-20.981509 17.911044-37.869065 30.192903-54.244877 2.558721-3.582209 5.117441-7.164418 7.676162-10.234883 1.023488-1.535232 2.046977-2.558721 3.070465-4.093953 0 8.69965-0.511744 17.3993-0.511744 25.587206 0 20.469765 0.511744 36.845577 2.046976 48.103948 5.629185 45.033483 29.681159 81.367316 50.150925 62.432784 8.69965-8.187906 11.770115-15.352324 13.817091-30.704648 4.605697-37.357321 9.723138-56.803598 30.704648-103.372314 9.723138-21.493253 20.981509-40.427786 33.775112-56.291854 13.817091-17.3993 28.657671-30.704648 42.986507-40.93953-7.676162 36.845577-10.234883 82.902549-4.093953 137.147426 9.723138 88.01999 26.098951 126.4008 46.568716 134.588706 11.770115 4.605697 20.469765-3.070465 22.004997-13.817091 0.511744-4.093953 0.511744-7.164418 0.511744-19.958021-0.511744-30.192904 1.023488-50.662669 8.699651-75.738131 6.652674-20.981509 15.352324-36.845577 26.610694-48.615692 2.558721-3.070465 5.117441-5.629185 7.676162-7.676162-6.14093 38.892554-1.535232 85.973013 20.981509 139.706147 19.958021 47.592204 15.352324 106.954523-10.746626 140.729635-4.093953 5.629185-3.582209 13.305347 2.046976 17.911044 5.629185 4.093953 13.305347 3.582209 17.911045-2.046976 30.192904-41.963018 35.310345-111.048476 12.281859-166.828586z" fill="#754C24" p-id="2648"></path></svg>