<?xml version="1.0" standalone="no"?><!DOCTYPE svg PUBLIC "-//W3C//DTD SVG 1.1//EN" "http://www.w3.org/Graphics/SVG/1.1/DTD/svg11.dtd"><svg t="1583646948576" class="icon" viewBox="0 0 1024 1024" version="1.1" xmlns="http://www.w3.org/2000/svg" p-id="7105" xmlns:xlink="http://www.w3.org/1999/xlink" width="16" height="16"><defs><style type="text/css"></style></defs><path d="M1013.462838 568.872817c-31.97699 139.634955-94.25397 342.80489-96.859968 351.414886a134.979957 134.979957 0 0 1-132.886958 103.702967H3.016164V418.904865h184.551941c193.626938 0 218.43493-282.620909 218.760929-285.506908a133.025957 133.025957 0 1 1 266.004914 3.723999 606.015805 606.015805 0 0 1-30.25399 235.191924H876.339883a154.06395 154.06395 0 0 1 114.314963 53.013983 162.907948 162.907948 0 0 1 22.806992 143.544954zM96.339134 511.994835v418.905865h93.08997V511.994835H96.572134z m821.473735-28.577991a63.25498 63.25498 0 0 0-41.564986-17.966994H554.854986a46.544985 46.544985 0 0 1-28.439991-83.454973c49.896984-38.445988 57.110982-179.383942 52.782983-241.614922a43.286986 43.286986 0 0 0-40.029987-47.196985 42.122986 42.122986 0 0 0-39.980987 43.938986c-8.749997 111.241964-66.047979 300.400903-216.94693 357.558885V930.8997h501.475838a42.588986 42.588986 0 0 0 43.007987-34.629989c1.49-5.352998 64.789979-211.639932 96.021969-348.109888a82.477973 82.477973 0 0 0-4.932999-64.789979z" fill="" p-id="7106"></path></svg>