<?xml version="1.0" standalone="no"?><!DOCTYPE svg PUBLIC "-//W3C//DTD SVG 1.1//EN" "http://www.w3.org/Graphics/SVG/1.1/DTD/svg11.dtd"><svg t="1582018577729" class="icon" viewBox="0 0 1024 1024" version="1.1" xmlns="http://www.w3.org/2000/svg" p-id="10451" xmlns:xlink="http://www.w3.org/1999/xlink" width="200" height="200"><defs><style type="text/css"></style></defs><path d="M512 12.642C236.654 12.642 12.642 236.654 12.642 512S236.654 1011.358 512 1011.358 1011.357 787.346 1011.357 512 787.346 12.642 512 12.642z" fill="#FFFFFF" p-id="10452"></path><path d="M676.519 455.42L521.938 124.284a6.325 6.325 0 0 0-5.666-3.642h-0.062a6.317 6.317 0 0 0-5.667 3.531l-163 331.136a6.312 6.312 0 0 0 0.852 6.877c1.629 1.938 4.271 2.716 6.654 1.963L512 416.432l156.95 47.716a6.36 6.36 0 0 0 6.617-1.902 6.36 6.36 0 0 0 0.952-6.826zM518.32 405.14V292.531c0-3.494-2.826-6.321-6.32-6.321s-6.321 2.827-6.321 6.321V405.14l-140.358 42.674L516.062 141.58l143 306.346L518.32 405.14zM533.395 498.321c0 11.814-9.58 21.395-21.395 21.395s-21.395-9.58-21.395-21.395c0-11.803 9.58-21.396 21.395-21.396 11.814 0.001 21.395 9.594 21.395 21.396z" fill="#8D8D8D" p-id="10453"></path><path d="M512 568.05m-21.395 0a21.395 21.395 0 1 0 42.79 0 21.395 21.395 0 1 0-42.79 0Z" fill="#8D8D8D" p-id="10454"></path><path d="M512 637.778m-21.395 0a21.395 21.395 0 1 0 42.79 0 21.395 21.395 0 1 0-42.79 0Z" fill="#8D8D8D" p-id="10455"></path><path d="M301.592 891.519l-3.667-15.617c11.333 0.593 19.371 0.901 24.124 0.901 5.494 0 8.259-3.296 8.259-9.864V709.815h-35.371v-16.063h79.938v16.063h-27.556v161.246c0 13.643-6.519 20.457-19.531 20.457h-26.196z m129.791-128.642h16.309v40.889c-0.766 24.667-6.827 44.013-18.148 58.111-11.173 13.32-29.568 23.889-55.136 31.703l-8.963-14.012c24.506-7.037 41.593-16.47 51.234-28.26 9.025-12.086 13.926-27.926 14.704-47.543v-40.888z m-48.469-69.124h116.234v16.063H448.37c-0.765 9.036-1.765 17.086-2.987 24.123h46.185v108.877h-16.321v-93.494h-69.592v93.95h-16.086V733.938h39.049c1.222-7.037 2.222-15.087 2.988-24.123h-48.691v-16.062z m76.271 150.444c17.136 13.31 31.074 26.111 41.79 38.358l-11.938 12.173c-10.42-12.716-24.124-26.024-41.136-39.963l11.284-10.568zM523.716 769.074h31c-3.814-11.333-8.567-22.346-14.234-33.074l14.938-5.506c5.197 9.803 10.185 22.654 14.913 38.58h24.815c6.432-12.704 11.95-26.087 16.543-40.186l15.395 5.272c-4.753 12.876-9.963 24.506-15.617 34.913h26.63v16.087H523.716v-16.086z m4.37-62.926h46.617c-2.444-8.271-4.827-15.247-7.11-20.901l16.765-2.766c2.137 6.271 4.433 14.173 6.901 23.667h45.704v15.617H528.086v-15.617z m99.444 99.679v84.531h-15.839v-12.173h-59.26v12.63h-16.086v-84.988h91.185z m-75.098 56.976h59.26v-41.815h-59.26v41.815z m97.161-167.692h73.493v11.95c-6.74 23.754-14.074 46.173-22.037 67.309 16.519 22.815 24.89 41.568 25.025 56.272 0 12.407-2.827 21.209-8.507 26.407-6.11 5.21-18.21 7.814-36.271 7.814l-4.827-16.543c7.951 0.63 13.013 0.926 15.161 0.926 8.259-0.457 13.556-1.84 15.839-4.136 2.136-2.766 3.309-7.58 3.444-14.469-0.296-14.408-9.099-33.161-26.407-56.272 7.494-18.691 14.778-40.209 21.815-64.555h-40.89v184.913h-15.839V695.111z" fill="#8D8D8D" p-id="10456"></path><path d="M512 1024C229.679 1024 0 794.321 0 512S229.679 0 512 0s512 229.679 512 512-229.679 512-512 512z m0-1011.358C236.654 12.642 12.642 236.654 12.642 512S236.654 1011.358 512 1011.358 1011.357 787.346 1011.357 512 787.346 12.642 512 12.642z" fill="#8D8D8D" p-id="10457"></path></svg>