<?xml version="1.0" standalone="no"?><!DOCTYPE svg PUBLIC "-//W3C//DTD SVG 1.1//EN" "http://www.w3.org/Graphics/SVG/1.1/DTD/svg11.dtd"><svg t="1584069253139" class="icon" viewBox="0 0 1024 1024" version="1.1" xmlns="http://www.w3.org/2000/svg" p-id="1982" xmlns:xlink="http://www.w3.org/1999/xlink" width="16" height="16"><defs><style type="text/css"></style></defs><path d="M463.7 618.4h-90.6l0.5-236.8c0-13.3-10.7-24-23.9-24.1-13.3 0-24 10.7-24.1 23.9l-0.6 259.3c0 0.5-0.1 1.1-0.1 1.6 0 13.3 10.7 24 24 24h114.7c13.3 0 24-10.7 24-24 0.1-13.1-10.6-23.9-23.9-23.9zM683 360c-12.5-4.8-26.4 2-31 15.2l-57.8 187.7-57.8-187.7c-4.6-13.2-18.4-20-31-15.2-12.5 4.8-19 19.4-14.4 32.7L569.1 639c4.5 12 5.6 21.4 15.9 25.4 3.1 1.2 6.2 1.7 9.3 1.5 3.1 0.1 6.2-0.3 9.3-1.5 10.2-3.9 11.8-13 15.9-25.4l78.1-246.3c4.4-13.3-2-27.9-14.6-32.7z" fill="#FF4D7C" p-id="1983"></path></svg>