<?xml version="1.0" standalone="no"?><!DOCTYPE svg PUBLIC "-//W3C//DTD SVG 1.1//EN" "http://www.w3.org/Graphics/SVG/1.1/DTD/svg11.dtd"><svg t="1582012376685" class="icon" viewBox="0 0 1024 1024" version="1.1" xmlns="http://www.w3.org/2000/svg" p-id="9115" xmlns:xlink="http://www.w3.org/1999/xlink" width="200" height="200"><defs><style type="text/css"></style></defs><path d="M479.112251 296.480162c-15.276923 15.276923-40.171891 15.276923-56.014702 0-15.276923-15.276923-15.276923-40.171891 0-55.448814l166.911307-166.911308c49.789937-49.225072 115.422684-74.12004 180.490567-74.12004 140.318676 0 253.478832 113.726044 253.478832 254.609584 0 65.06686-24.894968 130.699607-74.120041 179.924679L768.235872 616.156606c-49.225072 48.093297-113.726044 72.422377-178.227016 72.422377-89.961828 0-172.569162-48.093297-217.833019-123.909977v-0.565888c-11.315709-18.105338-19.803002-37.90834-26.026744-57.145454-6.223742-20.934777 5.657854-43.000307 26.026744-49.225072 21.500665-6.223742 43.000307 5.657854 49.225072 26.592631 3.960191 13.57926 10.183933 27.158519 17.539451 39.606004 31.11871 52.619375 88.831076 85.435749 150.502608 85.435749 44.69797 0 88.831076-16.973563 123.34409-49.789937l181.621319-181.621319c33.948149-33.948149 50.921712-79.212007 50.921712-123.909977A174.827596 174.827596 0 0 0 769.932512 78.648166c-44.69797 0-89.961828 16.973563-123.909977 50.921712h-0.565888L479.112251 296.480162z" p-id="9116"></path><path d="M544.744998 727.620122l-166.911307 166.911307c-67.896298 67.896298-181.056455 67.896298-248.385842 0-67.896298-67.896298-67.896298-180.490567 0-248.385842l179.358791-180.490567c34.514037-33.382261 79.212007-50.921712 124.475865-50.921712s89.961828 16.973563 124.475865 50.921712v0.565888c10.749821 10.183933 19.237114 22.066553 26.026744 33.948149 7.921405 12.447484 13.57926 25.460856 17.539451 39.040116 6.223742 21.500665 27.724407 32.816374 48.659184 27.158519 20.934777-6.223742 32.816374-27.724407 27.158519-49.225072-6.223742-20.36889-14.711035-39.606004-24.32908-57.145454-11.315709-18.105338-24.329081-34.514037-38.474228-49.789937-49.789937-49.225072-114.85782-74.12004-180.490567-74.12004s-130.133719 24.894968-180.490567 74.12004L73.433147 590.129862c-97.883233 98.449121-97.883233 261.399214 0 359.849358l2.829439 2.263551c98.449121 96.18557 258.570798 95.054818 356.454031-1.697663v-0.565888l0.565888-0.565888 167.477195-166.911307c15.276923-15.842811 15.276923-40.171891-0.565888-56.013679-15.276923-14.145147-40.172915-14.145147-55.448814 1.131776z" p-id="9117"></path></svg>