<?xml version="1.0" standalone="no"?><!DOCTYPE svg PUBLIC "-//W3C//DTD SVG 1.1//EN" "http://www.w3.org/Graphics/SVG/1.1/DTD/svg11.dtd"><svg t="1583643265969" class="icon" viewBox="0 0 1024 1024" version="1.1" xmlns="http://www.w3.org/2000/svg" p-id="4739" xmlns:xlink="http://www.w3.org/1999/xlink" width="16" height="16"><defs><style type="text/css"></style></defs><path d="M493.714286 832H82.285714v-676.571429h678.4v237.714286c0 14.628571 12.8 27.428571 27.428572 27.428572s27.428571-12.8 27.428571-27.428572V151.771429c0-27.428571-21.942857-51.2-51.2-51.2H76.8c-27.428571 0-49.371429 21.942857-49.371429 51.2v685.714285c0 27.428571 21.942857 51.2 51.2 51.2h416.914286c14.628571 0 27.428571-12.8 27.428572-27.428571s-14.628571-29.257143-29.257143-29.257143z m0 0" p-id="4740" fill="#8a8a8a"></path><path d="M786.285714 501.028571c-71.314286 0-135.314286 36.571429-171.885714 89.6h-95.085714v-29.257142h56.685714c18.285714 0 29.257143-3.657143 36.571429-10.971429 7.314286-7.314286 10.971429-18.285714 10.971428-36.571429v-137.142857c0-18.285714-3.657143-29.257143-10.971428-36.571428-7.314286-7.314286-18.285714-10.971429-36.571429-10.971429h-5.485714c0-3.657143 5.485714-10.971429 5.485714-10.971428 3.657143-10.971429 7.314286-18.285714 3.657143-21.942858 0-7.314286-3.657143-10.971429-10.971429-18.285714-7.314286-3.657143-16.457143-3.657143-20.114285-3.657143-7.314286 3.657143-10.971429 7.314286-18.285715 18.285715-3.657143 7.314286-7.314286 10.971429-10.971428 18.285714-3.657143 7.314286-7.314286 10.971429-10.971429 18.285714h-43.885714c-3.657143-7.314286-7.314286-14.628571-7.314286-18.285714-3.657143-7.314286-7.314286-10.971429-10.971428-18.285714-3.657143-10.971429-10.971429-14.628571-18.285715-14.628572s-14.628571 0-21.942857 7.314286c-7.314286 7.314286-10.971429 10.971429-10.971428 18.285714s0 14.628571 7.314285 21.942857l7.314286 7.314286c-14.628571 0-25.6 3.657143-32.914286 10.971429-7.314286 3.657143-10.971429 18.285714-10.971428 32.914285v133.485715c0 18.285714 3.657143 29.257143 10.971428 36.571428 7.314286 7.314286 18.285714 10.971429 36.571429 10.971429h51.2v29.257143h-82.285714c-10.971429 0-18.285714 0-21.942858 3.657142-3.657143 3.657143-7.314286 7.314286-7.314285 18.285715v14.628571c0 3.657143 3.657143 7.314286 3.657143 7.314286 3.657143 0 3.657143 3.657143 7.314285 3.657143h100.571429v47.542857c0 10.971429 3.657143 18.285714 7.314286 21.942857 3.657143 3.657143 10.971429 7.314286 18.285714 7.314286 10.971429 0 18.285714-3.657143 21.942857-7.314286 3.657143-3.657143 3.657143-10.971429 3.657143-21.942857v-47.542857h73.142857c-9.142857 23.771429-14.628571 49.371429-14.628571 76.8 0 115.2 95.085714 210.285714 210.285714 210.285714s210.285714-95.085714 210.285714-210.285714-91.428571-210.285714-208.457143-210.285715z m-320 10.971429h-47.542857v-43.885714h47.542857V512z m0-85.942857h-51.2v-43.885714h51.2v43.885714z m98.742857 82.285714h-47.542857v-43.885714h47.542857v43.885714z m-51.2-85.942857v-43.885714h47.542858c3.657143 0 3.657143 0 3.657142 3.657143v40.228571h-51.2zM786.285714 866.742857c-85.942857 0-155.428571-69.485714-155.428571-155.428571 0-36.571429 12.8-69.485714 32.914286-96.914286l219.428571 217.6c-25.6 21.942857-60.342857 34.742857-96.914286 34.742857z m133.485715-74.971428L705.828571 577.828571c23.771429-14.628571 51.2-21.942857 80.457143-21.942857 85.942857 0 155.428571 69.485714 155.428572 155.428572 0 29.257143-7.314286 56.685714-21.942857 80.457143zM268.8 464.457143c0-3.657143 0-7.314286 3.657143-7.314286h40.228571c14.628571 0 21.942857-3.657143 29.257143-10.971428 7.314286-7.314286 10.971429-18.285714 10.971429-36.571429v-60.342857c0-14.628571-3.657143-29.257143-7.314286-36.571429-10.971429-10.971429-21.942857-14.628571-36.571429-14.628571h-69.485714c-7.314286 0-14.628571 0-18.285714 3.657143-3.657143 7.314286-3.657143 10.971429-3.657143 21.942857 0 7.314286 0 14.628571 3.657143 18.285714 3.657143 3.657143 10.971429 7.314286 18.285714 7.314286h54.857143c3.657143 0 7.314286 0 7.314286 3.657143v29.257143c0 7.314286 0 10.971429-3.657143 10.971428 0 0-3.657143 3.657143-7.314286 3.657143h-29.257143c-7.314286 0-10.971429 0-18.285714 3.657143-3.657143 0-7.314286 3.657143-7.314286 3.657143-3.657143 3.657143-7.314286 10.971429-7.314285 14.628571 0 7.314286-3.657143 14.628571-3.657143 21.942857l-7.314286 60.342857v25.6c0 7.314286 3.657143 10.971429 7.314286 14.628572 3.657143 3.657143 7.314286 3.657143 14.628571 7.314286h56.685714c3.657143 0 7.314286 0 7.314286 3.657142s3.657143 7.314286 3.657143 14.628572c0 18.285714 0 36.571429-3.657143 47.542857 0 7.314286-3.657143 18.285714-7.314286 21.942857 0 3.657143-3.657143 7.314286-7.314285 10.971429 0 3.657143 0 3.657143-3.657143 7.314285h-9.142857c-3.657143 0-7.314286-3.657143-14.628572-7.314285-7.314286-7.314286-14.628571-7.314286-21.942857-7.314286-7.314286 0-10.971429 3.657143-14.628571 10.971429-3.657143 10.971429-7.314286 18.285714-3.657143 25.6 3.657143 7.314286 10.971429 14.628571 21.942857 18.285714 14.628571 7.314286 29.257143 14.628571 40.228571 14.628571 10.971429 0 18.285714-3.657143 29.257143-7.314285 7.314286-3.657143 14.628571-14.628571 21.942857-25.6 7.314286-10.971429 10.971429-29.257143 14.628572-47.542858 3.657143-18.285714 3.657143-43.885714 3.657143-71.314285 0-10.971429 0-18.285714-3.657143-25.6 0-7.314286-3.657143-10.971429-7.314286-14.628572-3.657143-3.657143-7.314286-7.314286-10.971428-7.314285-3.657143 0-10.971429-3.657143-18.285715-3.657143h-47.542857s-3.657143-3.657143 0-7.314286l3.657143-34.742857z m0 0" p-id="4741" fill="#8a8a8a"></path></svg>