<?xml version="1.0" standalone="no"?><!DOCTYPE svg PUBLIC "-//W3C//DTD SVG 1.1//EN" "http://www.w3.org/Graphics/SVG/1.1/DTD/svg11.dtd"><svg t="1583220023024" class="icon" viewBox="0 0 1024 1024" version="1.1" xmlns="http://www.w3.org/2000/svg" p-id="7506" xmlns:xlink="http://www.w3.org/1999/xlink" width="16" height="16"><defs><style type="text/css"></style></defs><path d="M624.879144 421.770774v-0.275825c-7.240404-2.37899-12.377643-8.826397-12.998249-16.411582-0.655084-7.619663 3.309899-14.860067 10.067609-18.411313 6.723232-3.516768 14.929024-2.723771 20.824781 2.103165 43.476902 25.617239 70.231919 72.266128 70.40431 122.707609 0.137912 36.133064-13.377508 70.40431-36.960539 96.469765l-25.789629-25.78963c16.549495-18.997441 26.065455-43.614815 26.065454-69.542357 0-37.270842-19.618047-71.783434-51.613737-90.849832z m10.550303 297.925388c-6.58532 2.55138-14.032593 1.206734-19.273266-3.516768-5.240673-4.689024-7.378316-11.963906-5.550976-18.756094 1.241212-4.482155 4.033939-8.274747 7.826532-10.757172l28.89266 28.927138c-3.930505 1.482559-7.895488 2.861684-11.89495 4.102896z m67.197845-85.333334c29.720135-32.133603 47.890101-75.127811 47.890101-122.362828 0-80.540875-52.785993-148.704108-125.638249-171.907879-9.550438-1.620471-16.27367-10.308956-15.480673-19.962828 0.827475-9.653872 8.895354-17.101145 18.583703-17.101145 4.826936 0 6.206061 0.72404 6.516364 1.172256-0.275825 0.655084 0.275825 0.448215 0 0 0.034478-0.034478 0.034478-0.103434 0.068956-0.172391 88.781145 27.479057 153.255219 110.192054 153.255219 207.971987 0 57.543973-22.341818 109.847273-58.785185 148.773064l-26.410236-26.410236z m-156.737508 151.910573h-1.241212c-5.826801 0-11.446734-1.930774-16.032324-5.516499v0.241347l-170.873535-125.327946H267.272141c-17.170101 0-31.099259-13.929158-31.09926-31.099259v-223.900876c0-17.170101 13.929158-31.099259 31.09926-31.099259h34.029899l59.267878 59.233401v178.389764c0.034478 0 0.103434 0.034478 0.137913 0.034478 0.758519 5.964714 4.102896 11.274343 9.102222 14.584243-0.034478 0.103434-0.034478 0.172391-0.068956 0.275825h0.137912l143.773738 97.297239c3.413333 3.240943 8.343704 4.309764 12.756902 2.723771 4.447677-1.551515 7.585185-5.48202 8.171313-10.136566l0.103435 0.103434v-109.123232l37.339797 37.30532v118.466801h-0.034478c0 0.034478 0.034478 0.103434 0.034478 0.172391v1.241212c0 6.930101-2.758249 13.584377-7.654141 18.480269s-11.550168 7.654141-18.480269 7.654142zM403.219346 334.954882l125.396902-91.953131v0.241347c4.585589-3.585724 10.205522-5.516498 16.032324-5.516499h1.241212c14.411852 0 26.134411 11.688081 26.13441 26.134411v1.241212c0 0.068956 0 0.103434-0.034478 0.172391h0.034478v238.485118l-37.339797-37.30532V311.923502l-0.103435 0.103434c-0.586128-4.654545-3.723636-8.585051-8.171313-10.136566-4.413199-1.585993-9.343569-0.517172-12.756902 2.723771l-83.954209 56.819933-26.479192-26.479192z m-79.989226 81.264916c0-5.137239-4.171852-9.309091-9.30909-9.309091h-31.09926c-5.171717 0-9.343569 4.171852-9.343569 9.309091v192.801616c0 5.137239 4.171852 9.343569 9.343569 9.343569h31.09926c5.137239 0 9.309091-4.20633 9.30909-9.343569v-192.801616z" p-id="7507" fill="#1296db"></path><path d="M883.671871 804.512323c-1.585993 2.034209-3.206465 4.033939-4.861414 6.068148l-28.34101-28.375488c0.620606-0.758519 1.241212-1.551515 1.861818-2.344512 73.886599-93.98734 102.641347-209.55798 90.194748-319.474208-13.274074-110.502357-68.473535-216.005387-162.495354-289.926465-93.98734-73.886599-209.55798-102.606869-319.474209-90.160269-78.920404 10.481347-155.048081 41.304781-219.280808 92.711649l-28.306532-28.272053c70.369832-57.23367 154.392997-91.573872 241.657105-102.020741 120.32862-14.44633 246.828822 16.549495 349.43569 97.193805 102.606869 80.678788 163.219394 195.456431 177.631246 315.78505s-17.342492 246.173737-98.02128 348.815084z m-72.990168 74.403771c-70.473266 57.475017-154.7033 91.953131-242.174276 102.434478-120.32862 14.411852-246.173737-17.342492-348.780606-98.021279-102.641347-80.64431-163.219394-195.456431-177.631246-315.750572-13.653333-119.708013 16.721886-245.415219 97.366195-348.022088 1.758384-2.206599 3.516768-4.378721 5.275152-6.550842l28.34101 28.34101c-0.758519 0.930909-1.517037 1.861818-2.275556 2.827206-74.507205 94.780337-102.606869 209.55798-89.367272 320.094815s68.301145 214.626263 163.081481 289.133468c93.228822 73.265993 208.764983 102.020741 318.681212 89.539663 78.575623-9.895219 154.944646-41.028956 219.108418-92.366869l28.375488 28.34101z" p-id="7508" fill="#1296db"></path><path d="M70.953757 100.227879c-6.861145-6.861145-5.861279-18.997441 2.206599-27.06532s20.204175-9.067744 27.06532-2.206599l852.816162 852.816161c6.861145 6.861145 5.861279 18.997441-2.2066 27.06532s-20.204175 9.067744-27.06532 2.206599L70.953757 100.227879z" p-id="7509" fill="#1296db"></path></svg>