<?xml version="1.0" standalone="no"?><!DOCTYPE svg PUBLIC "-//W3C//DTD SVG 1.1//EN" "http://www.w3.org/Graphics/SVG/1.1/DTD/svg11.dtd"><svg t="1583217830987" class="icon" viewBox="0 0 1024 1024" version="1.1" xmlns="http://www.w3.org/2000/svg" p-id="6746" width="128" height="128" xmlns:xlink="http://www.w3.org/1999/xlink"><defs><style type="text/css"></style></defs><path d="M65.671757 643.730612V388.340447c0-58.374895 43.781171-94.859204 94.859204-94.859204h65.671756v321.061921l65.671757-65.671756V264.293796c80.26548-65.671757 160.530961-124.046651 218.905856-153.234099 43.781171-21.890586 72.968619-7.296862 72.968618 51.078033v102.156066l65.671757-65.671757V111.059697c0-87.562342-58.374895-145.937237-145.937237-87.562342-87.562342 51.078033-175.124684 116.74979-262.687027 182.421546 0 0-14.593724 14.593724-14.593724 21.890585h-65.671756C72.968619 227.809486 0 300.778105 0 388.340447v255.390165c0 51.078033 29.187447 102.156066 65.671757 131.343513l43.781171-43.781171c-29.187447-21.890586-43.781171-58.374895-43.781171-87.562342zM576.452086 862.636467c0 58.374895-29.187447 80.26548-72.968618 58.374895-36.484309-21.890586-87.562342-58.374895-145.937237-94.859204l-51.078033 51.078033c65.671757 43.781171 131.343513 87.562342 189.718408 124.046652 87.562342 51.078033 145.937237 14.593724 145.937237-94.859205v-364.843092l-65.671757 65.671757v255.390164zM861.029698 512.387099c0-51.078033-21.890586-102.156066-58.374894-131.343514l-43.781172 43.781171c29.187447 21.890586 43.781171 51.078033 43.781172 87.562343 0 51.078033-36.484309 94.859204-80.265481 109.452927v65.671757c80.26548-14.593724 138.640375-87.562342 138.640375-175.124684z" fill="#1296db" p-id="6747"></path><path d="M912.107731 264.293796l-43.781171 43.781171c58.374895 51.078033 87.562342 124.046651 87.562342 197.01527 0 124.046651-87.562342 233.499579-204.312131 262.687026v65.671757C904.810869 811.558434 1021.560659 672.918059 1021.560659 512.387099c0-94.859204-43.781171-182.421546-109.452928-248.093303zM933.998317 89.169111c-14.593724-14.593724-36.484309-14.593724-43.781171 0L72.968619 891.823915c-14.593724 14.593724-14.593724 36.484309 0 43.781171 14.593724 14.593724 36.484309 14.593724 43.781171 0l817.248527-802.654804c7.296862-14.593724 7.296862-29.187447 0-43.781171z" fill="#1296db" p-id="6748"></path></svg>