<?xml version="1.0" standalone="no"?><!DOCTYPE svg PUBLIC "-//W3C//DTD SVG 1.1//EN" "http://www.w3.org/Graphics/SVG/1.1/DTD/svg11.dtd"><svg t="1583216296681" class="icon" viewBox="0 0 1024 1024" version="1.1" xmlns="http://www.w3.org/2000/svg" p-id="3129" xmlns:xlink="http://www.w3.org/1999/xlink" width="200" height="200"><defs><style type="text/css"></style></defs><path d="M512 512m-510.619946 0a510.619946 510.619946 0 1 0 1021.239892 0 510.619946 510.619946 0 1 0-1021.239892 0Z" p-id="3130"></path><path d="M512 1022.619946c-281.530997 0-510.619946-229.088949-510.619946-510.619946s229.088949-510.619946 510.619946-510.619946 510.619946 229.088949 510.619946 510.619946-229.088949 510.619946-510.619946 510.619946z m0-966.037736c-251.169811 0-455.41779 204.247978-455.41779 455.41779s204.247978 455.41779 455.41779 455.41779 455.41779-204.247978 455.41779-455.41779-204.247978-455.41779-455.41779-455.41779z" p-id="3131"></path><path d="M399.525606 302.921833h19.320755c30.361186 0 54.512129 24.150943 54.51213 54.512129V676.226415c0 30.361186-24.150943 54.512129-54.51213 54.512129h-19.320755c-30.361186 0-54.512129-24.150943-54.512129-54.512129V356.743935c0.690027-29.671159 24.84097-53.822102 54.512129-53.822102zM613.433962 302.921833h19.320755c30.361186 0 54.512129 24.150943 54.512129 54.512129V676.226415c0 30.361186-24.150943 54.512129-54.512129 54.512129h-19.320755c-30.361186 0-54.512129-24.150943-54.512129-54.512129V356.743935c0-29.671159 24.84097-53.822102 54.512129-53.822102z" p-id="3132"></path></svg>