<?xml version="1.0" standalone="no"?><!DOCTYPE svg PUBLIC "-//W3C//DTD SVG 1.1//EN" "http://www.w3.org/Graphics/SVG/1.1/DTD/svg11.dtd"><svg t="1583215771737" class="icon" viewBox="0 0 1024 1024" version="1.1" xmlns="http://www.w3.org/2000/svg" p-id="2994" xmlns:xlink="http://www.w3.org/1999/xlink" width="200" height="200"><defs><style type="text/css"></style></defs><path d="M512.192 67.808c-245.184 0-444 198.784-444 444 0 245.184 198.816 444 444 444 245.216 0 444-198.816 444-444 0-245.216-198.784-444-444-444z m-69.28 620a31.968 31.968 0 1 1-64 0v-352a31.968 31.968 0 1 1 64 0v352z m202.688 0a31.968 31.968 0 1 1-64 0v-352a31.968 31.968 0 1 1 64 0v352z" p-id="2995"></path></svg>