<?xml version="1.0" standalone="no"?><!DOCTYPE svg PUBLIC "-//W3C//DTD SVG 1.1//EN" "http://www.w3.org/Graphics/SVG/1.1/DTD/svg11.dtd"><svg t="1583216331260" class="icon" viewBox="0 0 1024 1024" version="1.1" xmlns="http://www.w3.org/2000/svg" p-id="3266" xmlns:xlink="http://www.w3.org/1999/xlink" width="200" height="200"><defs><style type="text/css"></style></defs><path d="M511.506268 1024C229.09161 1024 0 794.90839 0 511.506268 0 229.09161 229.09161 0 511.506268 0c282.414658 0 511.506268 229.09161 511.506268 511.506268 0.987464 283.402122-228.104147 512.493732-511.506268 512.493732z m0-965.739634C261.677917 58.260366 58.260366 261.677917 58.260366 511.506268s203.417551 453.245902 453.245902 453.245902c250.815815 0 453.245902-203.417551 453.245902-453.245902 0-249.828351-202.430087-453.245902-453.245902-453.245902zM403.87271 312.038573h31.598843c10.862102 0 19.749277 8.887175 19.749276 19.749277V691.224687c0 10.862102-8.887175 19.749277-19.749276 19.749276h-31.598843c-10.862102 0-19.749277-8.887175-19.749277-19.749276V331.78785c0-10.862102 8.887175-18.761813 19.749277-19.749277m189.593057 0h31.598842c10.862102 0 19.749277 8.887175 19.749277 19.749277V691.224687c0 10.862102-8.887175 19.749277-19.749277 19.749276h-31.598842c-10.862102 0-19.749277-8.887175-19.749277-19.749276V331.78785c0-10.862102 8.887175-18.761813 19.749277-19.749277" p-id="3267" fill="#cdcdcd"></path></svg>