<?xml version="1.0" standalone="no"?><!DOCTYPE svg PUBLIC "-//W3C//DTD SVG 1.1//EN" "http://www.w3.org/Graphics/SVG/1.1/DTD/svg11.dtd"><svg t="1583857452352" class="icon" viewBox="0 0 1024 1024" version="1.1" xmlns="http://www.w3.org/2000/svg" p-id="4253" xmlns:xlink="http://www.w3.org/1999/xlink" width="16" height="16"><defs><style type="text/css"></style></defs><path d="M727.537708 273.640772a143.190111 143.190111 0 1 0-202.498144 202.548193 143.190111 143.190111 0 0 0 202.498144-202.548193z m-170.116459 170.116459a97.595497 97.595497 0 0 1 0-137.684724 97.595497 97.595497 0 0 1 137.734773 0 97.595497 97.595497 0 0 1 0 137.684724 97.645546 97.645546 0 0 1-137.734773 0z m132.229386 413.955054l-78.276593-78.226545c48.697651-37.937121 103.551325-92.790796 172.068368-161.307839C991.846333 409.824027 1001.105393 87.1583 957.562787 43.665742 914.070229 0.123136 592.855922 7.830678 382.95053 217.73607 314.483535 286.253113 259.479714 341.00669 221.342397 389.554193L140.012816 308.224613l-2.052008-2.052008L0.125937 443.757231l40.539668 40.539668 97.295203-97.245154 50.399316 50.399315c-49.298238 85.083254-33.933204 157.053677 68.967484 265.960242L153.275794 807.413067l40.589717 40.539668 104.001765-104.001765c108.105781 101.949758 180.176302 117.314792 265.509801 68.517044l50.899805 50.849756-97.295203 97.245154 40.589717 40.539668 137.584626-137.784822-5.505387-5.605485z m169.415773-778.11138c29.078453 0.250245 47.296279 3.453379 56.455241 5.955828 2.552498 9.209011 5.755632 27.526935 5.85573 56.805584 0.100098 17.867483-1.051028 42.841921-5.255142 73.772186l0.650637-5.505387a729.213534 729.213534 0 0 1-66.865428-59.308033 744.728715 744.728715 0 0 1-59.708424-67.215771 516.00491 516.00491 0 0 1 68.867386-4.504407z m49.047993 181.928016z m5.004898-26.726152c0.700686-4.204114 1.401371-8.258081 1.95191-12.261998-0.550539 4.003918-1.251224 8.157983-1.95191 12.261998z m1.95191-12.261998c0.250245-1.901861 0.600588-3.753673 0.800783-5.605485a75.5239 75.5239 0 0 1-0.800783 5.605485zM502.31733 777.383684c-23.823311 7.457297-44.893929 5.85573-70.569052-5.605485-26.425858-11.811558-57.256025-34.233497-93.591579-68.366897l98.546428-98.496379-40.539668-40.539668-98.546428 98.496379c-34.233497-36.435652-56.805584-67.265819-68.717239-93.691677-11.461215-25.424878-13.413125-46.2953-6.206073-69.768268 17.867483-58.557298 92.5906-133.080219 195.791582-236.431348l4.804701-4.804701a584.071513 584.071513 0 0 1 148.245057-106.654361 679.815198 679.815198 0 0 1 174.120377-60.208915l-6.556416 1.351323c22.572087 30.930265 48.697651 61.660334 78.126447 90.938983a765.348892 765.348892 0 0 0 90.63869 77.776104 685.270536 685.270536 0 0 1-59.207935 168.715087 577.565146 577.565146 0 0 1-105.853578 147.444274c-104.952696 105.25299-180.876988 181.177282-240.485314 199.845549z m287.881692-693.278372a78.276593 78.276593 0 0 0-5.85573 0.800784c1.95191-0.250245 3.90382-0.600588 5.85573-0.800784z m-5.85573 0.800784z m-12.21195 1.801763l-5.955827 1.051028c2.052008-0.450441 4.003918-0.800784 5.955827-1.051028z m-6.456317 1.051028z" p-id="4254" fill="#1296db"></path></svg>