<?xml version="1.0" standalone="no"?><!DOCTYPE svg PUBLIC "-//W3C//DTD SVG 1.1//EN" "http://www.w3.org/Graphics/SVG/1.1/DTD/svg11.dtd"><svg t="1583857642811" class="icon" viewBox="0 0 1137 1024" version="1.1" xmlns="http://www.w3.org/2000/svg" p-id="4436" xmlns:xlink="http://www.w3.org/1999/xlink" width="17.765625" height="16"><defs><style type="text/css"></style></defs><path d="M576.915593 959.553964a318.136313 318.136313 0 0 1-32.159904-1.626221 311.715548 311.715548 0 1 1 32.159904 1.626221z m-189.258371-543.830427a298.481481 298.481481 0 1 0 377.311097 462.631576c127.574162-104.022009 146.682248-292.411194 42.64622-419.957318a298.467462 298.467462 0 0 0-419.957317-42.6322z m-4.430048-5.439425z" fill="#666666" p-id="4437"></path><path d="M576.32679 959.988557a7.009569 7.009569 0 0 1-6.014211-3.406651L301.411481 506.805881a7.009569 7.009569 0 0 1 6.01421-10.598469H845.35406a7.009569 7.009569 0 0 1 6.014211 10.598469l-269.027271 449.776025a7.009569 7.009569 0 0 1-6.01421 3.406651zM319.720476 510.296647L576.32679 939.282289l256.606313-428.985642z" fill="#666666" p-id="4438"></path><path d="M577.097842 653.418033l489.814685 282.794065" fill="#82A11E" p-id="4439"></path><path d="M1066.856451 943.221667a7.009569 7.009569 0 0 1-3.490766-0.939282L573.593058 659.48832a7.009569 7.009569 0 1 1 7.009569-12.140574l489.814685 282.794065a7.009569 7.009569 0 0 1-3.518804 13.079856z" fill="#666666" p-id="4440"></path><path d="M87.843923 936.212098l489.814685-282.794065" fill="#82A11E" p-id="4441"></path><path d="M87.843923 943.221667a7.009569 7.009569 0 0 1-3.504785-13.079856l489.814685-282.794065a7.009569 7.009569 0 1 1 7.009569 12.140574L91.348707 942.282385a7.009569 7.009569 0 0 1-3.504784 0.939282z" fill="#666666" p-id="4442"></path><path d="M1049.739082 926.580949m-80.806315 0a80.806315 80.806315 0 1 0 161.612631 0 80.806315 80.806315 0 1 0-161.612631 0Z" fill="#9AC200" p-id="4443"></path><path d="M1049.907312 1014.424872a87.871961 87.871961 0 1 1 45.57622-12.897607 87.88598 87.88598 0 0 1-45.57622 12.897607z m-0.294402-161.668707a74.04909 74.04909 0 1 0 17.495885 2.102871 74.53976 74.53976 0 0 0-17.495885-2.102871z" fill="#666666" p-id="4444"></path><path d="M576.817459 653.375976V87.787846" fill="#82A11E" p-id="4445"></path><path d="M576.817459 660.385545a7.009569 7.009569 0 0 1-7.009569-7.009569V87.787846a7.009569 7.009569 0 0 1 14.019139 0v565.58813a7.009569 7.009569 0 0 1-7.00957 7.009569z" fill="#666666" p-id="4446"></path><path d="M87.843923 936.212098m-80.806315 0a80.806315 80.806315 0 1 0 161.61263 0 80.806315 80.806315 0 1 0-161.61263 0Z" fill="#9AC200" p-id="4447"></path><path d="M87.984114 1023.999944a87.773827 87.773827 0 1 1 45.604258-12.841531 87.311195 87.311195 0 0 1-45.604258 12.841531z m-0.280383-161.61263a74.04909 74.04909 0 1 0 17.439809 2.10287 74.441626 74.441626 0 0 0-17.439809-2.10287zM129.929377 1005.172241z" fill="#666666" p-id="4448"></path><path d="M576.705306 87.787846m-80.806315 0a80.806315 80.806315 0 1 0 161.612631 0 80.806315 80.806315 0 1 0-161.612631 0Z" fill="#9AC200" p-id="4449"></path><path d="M576.845498 175.575692a87.73177 87.73177 0 1 1 45.604258-12.827511 87.283157 87.283157 0 0 1-45.604258 12.827511zM576.579134 14.019139a73.768708 73.768708 0 1 0 38.552631 136.756697A73.768708 73.768708 0 0 0 576.579134 14.019139z" fill="#666666" p-id="4450"></path><path d="M576.705306 658.591095m-80.806315 0a80.806315 80.806315 0 1 0 161.612631 0 80.806315 80.806315 0 1 0-161.612631 0Z" fill="#9AC200" p-id="4451"></path><path d="M576.859517 746.435018a87.928038 87.928038 0 1 1 45.57622-12.897608 87.88598 87.88598 0 0 1-45.57622 12.897608z m-0.294402-161.668707a73.796746 73.796746 0 1 0 38.56665 136.812774 73.782727 73.782727 0 0 0-21.028708-134.709903 74.53976 74.53976 0 0 0-17.537942-2.102871z" fill="#666666" p-id="4452"></path></svg>