<?xml version="1.0" standalone="no"?><!DOCTYPE svg PUBLIC "-//W3C//DTD SVG 1.1//EN" "http://www.w3.org/Graphics/SVG/1.1/DTD/svg11.dtd"><svg t="1583135882371" class="icon" viewBox="0 0 1024 1024" version="1.1" xmlns="http://www.w3.org/2000/svg" p-id="2228" xmlns:xlink="http://www.w3.org/1999/xlink" width="200" height="200"><defs><style type="text/css"></style></defs><path d="M772.65 514.49c0-37.23 23.38-68.78 56.13-81.36-7.82-30.7-19.9-59.61-35.67-86.19-32.12 14.28-70.91 8.46-97.2-17.91-26.29-26.29-32.12-65.16-17.83-97.2-26.65-15.77-55.56-27.85-86.26-35.67-12.65 32.76-44.2 56.13-81.36 56.13-37.23 0-68.78-23.38-81.36-56.13-30.7 7.82-59.61 19.89-86.19 35.67 14.28 32.12 8.46 70.91-17.83 97.2-26.29 26.29-65.16 32.12-97.2 17.91-15.84 26.57-27.92 55.49-35.74 86.19 32.76 12.65 56.13 44.2 56.13 81.36 0 37.23-23.38 68.78-56.13 81.36 7.82 30.7 19.89 59.61 35.67 86.19 32.12-14.28 70.91-8.46 97.2 17.91 26.29 26.29 32.12 65.16 17.83 97.2 26.65 15.77 55.56 27.85 86.26 35.67 12.65-32.76 44.2-56.13 81.36-56.13 37.23 0 68.78 23.38 81.36 56.13 30.7-7.82 59.61-19.89 86.19-35.67-14.28-32.12-8.46-70.91 17.83-97.2s65.16-32.12 97.2-17.91c15.84-26.57 27.92-55.49 35.74-86.19-32.75-12.58-56.13-44.12-56.13-81.36z m-262.19 87.4c-48.25 0-87.4-39.15-87.4-87.4s39.15-87.4 87.4-87.4 87.4 39.15 87.4 87.4c0 48.25-39.15 87.4-87.4 87.4z" p-id="2229"></path></svg>