<?xml version="1.0" standalone="no"?><!DOCTYPE svg PUBLIC "-//W3C//DTD SVG 1.1//EN" "http://www.w3.org/Graphics/SVG/1.1/DTD/svg11.dtd"><svg t="1581734976997" class="icon" viewBox="0 0 1398 1024" version="1.1" xmlns="http://www.w3.org/2000/svg" p-id="3602" xmlns:xlink="http://www.w3.org/1999/xlink" width="273.046875" height="200"><defs><style type="text/css"></style></defs><path d="M1396.565333 496.64a44.373333 44.373333 0 0 0-3.413333-16.042667c0-1.365333-0.682667-2.048-1.365333-3.413333l-2.048-6.314667C1260.202667 189.781333 982.698667 0 698.88 0s-562.005333 189.098667-690.005333 469.333333a35.584 35.584 0 0 0-3.413334 9.045334c0 0.682667-0.682667 1.365333-0.682666 2.048a57.685333 57.685333 0 0 0-2.048 11.264L0 507.733333v9.045334a86.186667 86.186667 0 0 0 1.365333 11.264 87.552 87.552 0 0 0 1.365334 10.410666 21.418667 21.418667 0 0 0 3.584 9.045334 51.2 51.2 0 0 0 2.048 5.632c129.194667 281.088 406.698667 470.869333 690.517333 470.869333s562.005333-188.757333 689.322667-466.944c1.365333-4.266667 3.413333-6.997333 4.266666-10.410667a2.474667 2.474667 0 0 0 0.682667-2.048 43.178667 43.178667 0 0 0 2.048-11.946666 52.138667 52.138667 0 0 0 2.730667-19.626667 130.389333 130.389333 0 0 0-1.365334-16.042667zM700.416 757.418667a244.736 244.736 0 1 1 244.736-244.736 244.736 244.736 0 0 1-244.736 244.736z" fill="#bbbbbb" p-id="3603"></path></svg>