<?xml version="1.0" standalone="no"?><!DOCTYPE svg PUBLIC "-//W3C//DTD SVG 1.1//EN" "http://www.w3.org/Graphics/SVG/1.1/DTD/svg11.dtd"><svg t="1583216841376" class="icon" viewBox="0 0 1367 1024" version="1.1" xmlns="http://www.w3.org/2000/svg" p-id="4069" xmlns:xlink="http://www.w3.org/1999/xlink" width="266.9921875" height="200"><defs><style type="text/css"></style></defs><path d="M914.966702 265.116057l-45.305661 45.305662c54.87728 49.644795 89.335107 121.368124 89.335107 201.259233 0 120.091908-77.849165 221.678687-185.817023 257.667973-13.017401 4.339134-21.950912 16.590806-21.950912 30.373936 0 21.82329 21.312804 37.393123 41.987501 30.501558 133.492174-44.539932 229.718846-170.247189 229.718846-318.543467 0.127622-97.502888-41.604635-185.306536-107.967858-246.564895z m0 0M224.151083 223.894287h-63.938412C72.026158 223.894287 0.430451 295.489994 0.430451 383.804128v255.753649c0 53.090578 25.779559 100.05532 65.597493 129.15304l46.199012-46.199012c-28.587234-16.590806-47.858093-47.475228-47.858093-82.954028V383.804128c0-52.962956 42.880851-95.971429 95.843808-95.971429h63.938412v322.754979l63.938412-63.938412V260.904545c83.592136-65.469871 161.951787-124.813906 215.680472-154.677356 44.157067-24.630965 71.723329-3.956269 71.723329 52.580091V258.990222l64.066034-64.066034v-83.464514c0-90.866566-58.067819-143.829522-145.23336-89.59035C416.732049 70.110281 354.580339 120.265563 265.628097 188.287865l-41.477014 35.606422z" fill="#1296db" p-id="4070"></path><path d="M265.628097 835.584526c88.952242 68.022303 150.976331 118.177584 228.570252 166.546163 87.037918 54.239172 145.233359 1.276216 145.233359-89.59035v-83.464514l-64.066034-64.066034V865.192733c0 56.536361-27.43864 77.211057-71.723328 52.580091-53.728686-29.86345-131.960715-89.207485-215.680473-154.677356V477.223125l-63.938412-63.938412v322.754979h-63.938412c-52.962956 0-95.843808-43.008473-95.843808-95.971429V384.186993c0-35.4788 19.270859-66.235601 47.858093-82.954028L66.027944 255.161574C26.21001 284.259295 0.430451 331.224037 0.430451 384.314614v255.753649c0 88.314134 71.595707 159.909841 159.78222 159.909842h63.938412l41.477014 35.606421z" fill="#1296db" p-id="4071"></path><path d="M575.365674 169.655115h64.066034v764.580893h-64.066034zM863.279962 511.680952c0-53.345821-23.737614-101.203914-61.385981-133.364552l-45.433283 45.433283C782.495501 444.296758 799.34155 475.94691 799.34155 511.680952c0 43.901824-25.396695 81.933055-62.15171 100.310563-10.847834 5.360106-17.611778 16.463184-17.611779 28.587235 0 23.609993 24.758587 39.179825 45.94377 28.714855 57.812576-28.842477 97.758131-88.569377 97.758131-157.612653z" fill="#1296db" p-id="4072"></path><path d="M863.279962 511.425709c0-69.170897-39.817933-128.897797-97.758131-157.485031-21.185182-10.46497-45.943769 5.104863-45.94377 28.714856 0 12.12405 6.763944 23.227128 17.611779 28.587234 36.882637 18.249886 62.15171 56.281117 62.15171 100.310563 0 35.734043-16.846049 67.384195-42.880852 87.931269l45.433283 45.433283c37.520745-32.28826 61.385981-80.018731 61.385981-133.492174z" fill="#1296db" p-id="4073"></path><path d="M914.966702 758.118226c66.363222-61.258359 107.967858-149.062007 107.967858-246.564895 0-148.423899-96.226672-274.131157-229.591225-318.415845-20.674696-6.891565-41.9875 8.678268-41.9875 30.501557 0 13.783131 8.805889 26.034803 21.950912 30.373937 107.840236 35.989286 185.817022 137.576065 185.817022 257.667972 0 79.89111-34.457827 151.614439-89.335107 201.259234l45.17804 45.17804z m0 0" fill="#1296db" p-id="4074"></path></svg>