<?xml version="1.0" standalone="no"?><!DOCTYPE svg PUBLIC "-//W3C//DTD SVG 1.1//EN" "http://www.w3.org/Graphics/SVG/1.1/DTD/svg11.dtd"><svg t="1583250695402" class="icon" viewBox="0 0 1327 1024" version="1.1" xmlns="http://www.w3.org/2000/svg" p-id="5836" xmlns:xlink="http://www.w3.org/1999/xlink" width="20.734375" height="16"><defs><style type="text/css"></style></defs><path d="M967.111111 170.666667c187.733333 0 341.333333 153.6 341.333333 341.333333s-153.6 341.333333-341.333333 341.333333H360.296296C172.562963 853.333333 18.962963 699.733333 18.962963 512S172.562963 170.666667 360.296296 170.666667h606.814815z m0 56.888889H360.296296c-157.392593 0-284.444444 127.051852-284.444444 284.444444s127.051852 284.444444 284.444444 284.444444h606.814815c157.392593 0 284.444444-127.051852 284.444445-284.444444s-127.051852-284.444444-284.444445-284.444444z m108.088889 115.674074v41.718518h-106.192593v77.748148c11.377778-9.481481 26.548148-13.274074 41.718519-13.274074 22.755556 0 39.822222 7.585185 53.096296 24.651852 13.274074 17.066667 20.859259 37.925926 20.859259 68.266667v37.925926c0 32.237037-7.585185 58.785185-22.755555 75.851852-13.274074 17.066667-34.133333 24.651852-60.681482 24.651851-24.651852 0-43.614815-7.585185-58.785185-24.651851-15.17037-15.17037-22.755556-37.925926-22.755555-66.370371h45.511111c1.896296 30.340741 13.274074 45.511111 36.029629 45.511111 24.651852 0 36.02963-18.962963 36.02963-56.888889v-34.133333c0-34.133333-11.377778-49.303704-34.133333-49.303704-18.962963 0-30.340741 11.377778-36.02963 32.237037h-43.614815v-182.044444h151.703704z m-187.733333 1.896296v32.237037l-89.125926 299.614815h-47.407408l85.333334-288.237037h-113.777778v-41.718519h164.977778zM589.748148 341.333333v333.748148h-45.511111V403.911111L493.037037 438.044444v-53.096296l62.577778-45.511111h34.133333z m75.851852 278.755556c7.585185 0 13.274074 1.896296 18.962963 7.585185 3.792593 3.792593 7.585185 11.377778 7.585185 18.962963s-1.896296 13.274074-7.585185 18.962963c-3.792593 3.792593-11.377778 7.585185-18.962963 7.585185s-13.274074-1.896296-18.962963-7.585185c-3.792593-3.792593-7.585185-11.377778-7.585185-18.962963s1.896296-13.274074 7.585185-18.962963c5.688889-3.792593 11.377778-7.585185 18.962963-7.585185zM394.42963 400.118519c13.274074 9.481481 15.17037 28.444444 5.688889 39.822222l-56.888889 72.059259 56.888889 72.059259c9.481481 13.274074 7.585185 30.340741-5.688889 39.822222s-30.340741 7.585185-39.822223-5.688888l-47.407407-60.681482-47.407407 60.681482c-9.481481 13.274074-28.444444 15.17037-39.822223 5.688888-13.274074-9.481481-15.17037-28.444444-5.688889-39.822222l56.888889-72.059259-56.888889-72.059259c-9.481481-13.274074-7.585185-30.340741 5.688889-39.822222s30.340741-7.585185 39.822223 5.688888l47.407407 60.681482 47.407407-60.681482c9.481481-13.274074 28.444444-15.17037 39.822223-5.688888z" p-id="5837" fill="#1296db"></path></svg>