<?xml version="1.0" standalone="no"?><!DOCTYPE svg PUBLIC "-//W3C//DTD SVG 1.1//EN" "http://www.w3.org/Graphics/SVG/1.1/DTD/svg11.dtd"><svg t="1583250537602" class="icon" viewBox="0 0 1327 1024" version="1.1" xmlns="http://www.w3.org/2000/svg" p-id="4422" xmlns:xlink="http://www.w3.org/1999/xlink" width="20.734375" height="16"><defs><style type="text/css"></style></defs><path d="M967.111111 170.666667H360.296296C172.562963 170.666667 18.962963 324.266667 18.962963 512s153.6 341.333333 341.333333 341.333333h606.814815c187.733333 0 341.333333-153.6 341.333333-341.333333S1154.844444 170.666667 967.111111 170.666667z m0 625.777777H360.296296c-157.392593 0-284.444444-127.051852-284.444444-284.444444s127.051852-284.444444 284.444444-284.444444h606.814815c157.392593 0 284.444444 127.051852 284.444445 284.444444s-127.051852 284.444444-284.444445 284.444444z" p-id="4423"></path><path d="M493.037037 396.325926v51.2l49.303704-34.133333v271.17037h47.407407V350.814815h-34.133333zM665.6 629.57037c-7.585185 0-13.274074 1.896296-18.962963 7.585186-3.792593 3.792593-7.585185 11.377778-7.585185 18.962963s1.896296 13.274074 7.585185 18.962962c3.792593 3.792593 11.377778 7.585185 18.962963 7.585186s13.274074-1.896296 18.962963-7.585186c3.792593-3.792593 7.585185-11.377778 7.585185-18.962962s-1.896296-13.274074-7.585185-18.962963c-5.688889-3.792593-11.377778-7.585185-18.962963-7.585186zM1041.066667 458.903704c-17.066667 0-30.340741 3.792593-41.718519 13.274074v-77.748148h106.192593v-41.718519h-149.807408v182.044445h43.614815c5.688889-20.859259 17.066667-32.237037 36.02963-32.237037 22.755556 0 34.133333 17.066667 34.133333 49.303703V587.851852c0 37.925926-11.377778 56.888889-36.02963 56.888889-22.755556 0-36.02963-15.17037-36.029629-45.511111h-45.511111c0 28.444444 9.481481 49.303704 22.755555 66.37037s34.133333 24.651852 58.785185 24.651852c26.548148 0 45.511111-7.585185 60.681482-24.651852 15.17037-17.066667 22.755556-43.614815 22.755556-75.851852v-37.925926c0-28.444444-7.585185-51.2-20.85926-68.266666-15.17037-17.066667-34.133333-24.651852-54.992592-24.651852zM800.237037 589.748148c5.688889-7.585185 11.377778-15.17037 18.962963-24.651852l11.377778-11.377777 11.377778-13.274075c18.962963-20.859259 34.133333-37.925926 41.718518-53.096296 13.274074-20.859259 18.962963-41.718519 18.962963-60.681481 0-22.755556-7.585185-41.718519-20.859259-56.888889-15.17037-17.066667-36.02963-24.651852-62.577778-24.651852-24.651852 0-43.614815 7.585185-58.785185 22.755555-15.17037 15.17037-22.755556 37.925926-24.651852 66.370371h43.614815c0-30.340741 13.274074-45.511111 37.925926-45.511111 11.377778 0 22.755556 3.792593 28.444444 11.377778 5.688889 7.585185 9.481481 15.17037 9.481482 26.548148 0 15.17037-5.688889 32.237037-18.962963 49.303703-3.792593 7.585185-11.377778 15.17037-18.962963 24.651852l-11.377778 11.377778-11.377778 13.274074c-41.718519 45.511111-62.577778 87.22963-62.577778 127.051852v32.237037h172.562963v-43.614815h-125.155555c1.896296-15.17037 7.585185-32.237037 20.859259-51.2zM394.42963 400.118519c-13.274074-9.481481-30.340741-7.585185-39.822223 5.688888l-47.407407 60.681482-47.407407-60.681482c-9.481481-13.274074-28.444444-15.17037-39.822223-5.688888-13.274074 9.481481-15.17037 28.444444-5.688889 39.822222l56.888889 72.059259-56.888889 72.059259c-9.481481 13.274074-7.585185 30.340741 5.688889 39.822222s30.340741 7.585185 39.822223-5.688888l47.407407-60.681482 47.407407 60.681482c9.481481 13.274074 28.444444 15.17037 39.822223 5.688888 13.274074-9.481481 15.17037-28.444444 5.688889-39.822222l-56.888889-72.059259 56.888889-72.059259c9.481481-11.377778 7.585185-30.340741-5.688889-39.822222z" p-id="4424"></path></svg>