<?xml version="1.0" standalone="no"?><!DOCTYPE svg PUBLIC "-//W3C//DTD SVG 1.1//EN" "http://www.w3.org/Graphics/SVG/1.1/DTD/svg11.dtd"><svg t="1582007375487" class="icon" viewBox="0 0 1040 1024" version="1.1" xmlns="http://www.w3.org/2000/svg" p-id="2016" xmlns:xlink="http://www.w3.org/1999/xlink" width="203.125" height="200"><defs><style type="text/css"></style></defs><path d="M175.196002 322.673795h406.251598c20.31258 0 33.8543-13.54172 33.8543-33.854299s-13.54172-33.8543-33.8543-33.8543h-406.251598c-20.31258 0-33.8543 13.54172-33.8543 33.8543s13.54172 33.8543 33.8543 33.854299z m0 203.125799h406.251598c20.31258 0 33.8543-13.54172 33.8543-33.854299s-13.54172-33.8543-33.8543-33.8543h-406.251598c-20.31258 0-33.8543 13.54172-33.8543 33.8543s13.54172 33.8543 33.8543 33.854299z m0 203.1258h203.125799c20.31258 0 33.8543-13.54172 33.8543-33.8543s-13.54172-33.8543-33.8543-33.8543h-203.125799c-20.31258 0-33.8543 13.54172-33.8543 33.8543s13.54172 33.8543 33.8543 33.8543z m0 0" fill="#666666" p-id="2017"></path><path d="M873.864115 383.571862V72.733847c0-37.292627-21.582116-62.154379-53.955291-62.154378H64.534759C32.161585 10.579469 10.579469 35.44122 10.579469 72.733847v870.333217c0 37.292627 21.582116 62.154379 53.95529 62.154379h323.731742v-62.154379H64.534759V72.733847H819.908824v310.771893z m0 0" fill="#666666" p-id="2018"></path><path d="M398.84597 1015.814136H64.534759c-18.765333 0-35.494117-7.365955-47.105084-20.735759C6.030297 981.933388 0 963.961515 0 943.067064V72.733847c0-20.881226 6.030297-38.853099 17.429675-51.998088C29.093539 7.365955 45.769426 0 64.534759 0H819.908824c18.765333 0 35.494117 7.365955 47.105085 20.735759 11.399378 13.14499 17.429675 31.116862 17.429674 51.998088v321.351362H809.329356V83.313316H75.114228v849.17428h323.731742zM64.534759 21.158937C38.178658 21.158937 21.158937 41.405396 21.158937 72.733847v870.333217c0 31.341676 17.01972 51.57491 43.375822 51.57491h313.152274v-40.995441H53.95529V62.154379H830.488293v310.771893h32.796353V72.733847c0-31.341676-17.01972-51.57491-43.375822-51.57491z" fill="#666666" p-id="2019"></path><path d="M1002.867909 543.595713m26.6504 26.6504l0 0q26.6504 26.6504 0 53.3008l-389.469882 389.469882q-26.6504 26.6504-53.3008 0l0 0q-26.6504-26.6504 0-53.3008l389.469882-389.469882q26.6504-26.6504 53.3008 0Z" fill="#666666" p-id="2020"></path><path d="MNaN NaNmNaN NaNlNaN NaNqNaN NaN NaN NaNlNaN NaNqNaN NaN NaN NaNlNaN NaNqNaN NaN NaN NaNlNaN NaNqNaN NaN NaN NaNZ" fill="#666666" p-id="2021"></path></svg>