<?xml version="1.0" standalone="no"?><!DOCTYPE svg PUBLIC "-//W3C//DTD SVG 1.1//EN" "http://www.w3.org/Graphics/SVG/1.1/DTD/svg11.dtd"><svg t="1581927642390" class="icon" viewBox="0 0 1024 1024" version="1.1" xmlns="http://www.w3.org/2000/svg" p-id="2101" xmlns:xlink="http://www.w3.org/1999/xlink" width="200" height="200"><defs><style type="text/css"></style></defs><path d="M896.930909 247.156364c-4.421818-5.12-9.076364-9.774545-13.730909-14.196364a225.745455 225.745455 0 0 0-104.727273-56.552727 24.436364 24.436364 0 0 0-4.421818 0 160.349091 160.349091 0 0 0-23.272727-4.189091c-7.912727 0-16.290909-1.396364-24.436364-1.629091a226.210909 226.210909 0 0 0-65.396363 8.610909 232.727273 232.727273 0 0 0-76.8 37.701818 230.632727 230.632727 0 0 0-141.963637-46.545454c-8.378182 0-16.290909 0-23.272727 1.629091a209.454545 209.454545 0 0 0-23.272727 3.956363A230.4 230.4 0 0 0 285.090909 232.727273a156.392727 156.392727 0 0 0-13.498182 14.196363 228.072727 228.072727 0 0 0-57.250909 130.094546 269.730909 269.730909 0 0 0-1.163636 27.694545 252.974545 252.974545 0 0 0 4.421818 46.545455 136.145455 136.145455 0 0 1 71.912727 26.763636 139.636364 139.636364 0 0 1 46.545455-23.272727 128.930909 128.930909 0 0 1 39.098182-5.12 99.141818 99.141818 0 0 1 14.661818 0 72.610909 72.610909 0 0 1 14.196363 2.56 8.145455 8.145455 0 0 1 2.56 0A135.447273 135.447273 0 0 1 468.945455 488.727273c2.792727 2.792727 5.585455 5.585455 8.145454 8.610909a135.912727 135.912727 0 0 1 34.909091 76.567273 132.421818 132.421818 0 0 1 0 16.756363 170.589091 170.589091 0 0 1-10.007273 53.992727 267.636364 267.636364 0 0 1-43.054545 75.17091l-7.68 8.843636c-5.585455 6.749091-11.636364 13.032727-17.687273 19.316364a1156.189091 1156.189091 0 0 0 140.8 94.72 19.781818 19.781818 0 0 0 19.083636 0c12.567273-6.981818 36.770909-21.178182 67.025455-41.425455s60.974545-42.356364 94.952727-69.818182l14.894546-12.8 7.912727-6.981818a778.705455 778.705455 0 0 0 75.636364-76.101818l12.567272-15.127273a436.130909 436.130909 0 0 0 71.912728-125.207273 282.763636 282.763636 0 0 0 15.825454-90.530909 269.032727 269.032727 0 0 0 0-27.694545 229.236364 229.236364 0 0 0-57.250909-129.861818z" fill="#d81e06" p-id="2102"></path><path d="M397.498182 718.196364a801.745455 801.745455 0 0 1-83.316364-83.083637c-4.189091-5.12-8.378182-10.007273-12.334545-15.127272a427.054545 427.054545 0 0 1-72.378182-125.207273 269.963636 269.963636 0 0 1-11.869091-44.218182 127.069091 127.069091 0 0 0-13.265455 0 97.978182 97.978182 0 0 0-14.42909 0 95.185455 95.185455 0 0 0-14.196364 2.327273A137.076364 137.076364 0 0 0 110.312727 488.727273c-2.792727 2.792727-5.585455 5.585455-8.145454 8.610909a135.912727 135.912727 0 0 0-34.210909 77.730909v16.756364a170.356364 170.356364 0 0 0 8.843636 52.82909 269.265455 269.265455 0 0 0 43.52 75.17091l7.447273 8.843636a483.607273 483.607273 0 0 0 50.036363 50.036364l9.076364 7.68a703.534545 703.534545 0 0 0 97.047273 67.025454 12.334545 12.334545 0 0 0 11.403636 0c7.447273-4.421818 23.272727-12.8 40.261818-24.901818a690.036364 690.036364 0 0 0 56.785455-42.123636l9.076363-7.68 4.654546-4.189091c9.541818-8.378182 18.618182-17.454545 27.694545-26.530909l-20.945454-16.989091z" fill="#ea8376" p-id="2103"></path><path d="M459.170909 719.825455a267.636364 267.636364 0 0 0 43.054546-75.17091 170.589091 170.589091 0 0 0 9.774545-53.992727 132.421818 132.421818 0 0 0 0-16.756363 135.912727 135.912727 0 0 0-34.210909-77.73091c-2.56-3.025455-5.352727-5.818182-8.145455-8.610909a135.447273 135.447273 0 0 0-62.836363-33.745454 8.145455 8.145455 0 0 0-2.56 0 72.610909 72.610909 0 0 0-14.196364-2.56 99.141818 99.141818 0 0 0-14.661818 0 128.930909 128.930909 0 0 0-39.098182 5.12 139.636364 139.636364 0 0 0-46.545454 23.272727 136.145455 136.145455 0 0 0-71.912728-26.763636 269.963636 269.963636 0 0 0 11.869091 44.218182A427.054545 427.054545 0 0 0 302.545455 619.985455c3.956364 5.12 8.145455 10.007273 12.334545 15.127272a801.745455 801.745455 0 0 0 83.316364 83.083637l15.36 12.8 20.945454 16.989091c6.050909-6.283636 12.101818-12.567273 17.687273-19.316364z" fill="#73B4FF" p-id="2104"></path><path d="M459.170909 719.825455a267.636364 267.636364 0 0 0 43.054546-75.17091 170.589091 170.589091 0 0 0 9.774545-53.992727 132.421818 132.421818 0 0 0 0-16.756363 135.912727 135.912727 0 0 0-34.210909-77.73091c-2.56-3.025455-5.352727-5.818182-8.145455-8.610909a135.447273 135.447273 0 0 0-62.836363-33.745454 8.145455 8.145455 0 0 0-2.56 0 72.610909 72.610909 0 0 0-14.196364-2.56 99.141818 99.141818 0 0 0-14.661818 0 128.930909 128.930909 0 0 0-39.098182 5.12 139.636364 139.636364 0 0 0-46.545454 23.272727 136.145455 136.145455 0 0 0-71.912728-26.763636 269.963636 269.963636 0 0 0 11.869091 44.218182A427.054545 427.054545 0 0 0 302.545455 619.985455c3.956364 5.12 8.145455 10.007273 12.334545 15.127272a801.745455 801.745455 0 0 0 83.316364 83.083637l15.36 12.8 20.945454 16.989091c6.050909-6.283636 12.101818-12.567273 17.687273-19.316364z" fill="#ea8376" p-id="2105"></path></svg>